<svg width="38" height="45" viewBox="0 0 38 45" fill="none" xmlns="http://www.w3.org/2000/svg">
<g opacity="0.9">
<path d="M0.267578 26.8939V17.995L7.56757 22.4413V31.334L0.267578 26.8932V26.8939Z" fill="#FFEF3B"/>
<path d="M14.8 26.8939V17.995L7.5 22.4413V31.334L14.8 26.8932V26.8939Z" fill="#E6D735"/>
<path d="M0.239258 18.0301L7.53925 13.5424L14.8392 18.0301L7.53925 22.4827L0.239258 18.0301Z" fill="#FFF36E"/>
<path d="M7.5 40.1386L7.54514 31.2396L14.8289 35.7336L14.7837 44.6263L7.5 40.1386Z" fill="#087BFF"/>
<path d="M22.0279 40.215L22.073 31.334L14.7619 35.7327L14.7168 44.6075L22.0279 40.2142V40.215Z" fill="#076FE6"/>
<path d="M7.49414 31.2693L14.8171 26.823L22.1008 31.3521L14.7779 35.7633L7.49414 31.2693Z" fill="#3191FF"/>
<path d="M7.53418 13.572L7.57932 4.6731L14.863 9.16704L14.8179 18.0597L7.53418 13.572Z" fill="#FF2929"/>
<path d="M22.1625 13.6548L22.2077 4.73792L14.8625 9.15462L14.8174 18.0653L22.1625 13.654V13.6548Z" fill="#E62525"/>
<path d="M7.58984 4.7027L14.9128 0.256348L22.1965 4.7854L14.8736 9.1904L7.58984 4.7027Z" fill="#FF5C5C"/>
<path d="M21.999 40.2564L22.0442 31.3574L29.3279 35.8514L29.2827 44.7441L21.999 40.2564Z" fill="#60F770"/>
<path d="M36.5943 40.3336L36.6394 31.4526L29.3283 35.8459L29.2832 44.7207L36.5943 40.3336Z" fill="#57DE64"/>
<path d="M22.0391 31.3582L29.362 26.9119L36.6457 31.4409L29.3228 35.8522L22.0391 31.3582Z" fill="#79F786"/>
<path d="M22.1621 13.6493L22.1791 4.76208L29.4628 9.22014L29.4458 18.1011L22.1621 13.6485V13.6493Z" fill="#FF70DB"/>
<path d="M36.7574 13.679L36.7744 4.78003L29.4633 9.22092L29.4463 18.1136L36.7574 13.679Z" fill="#E665C5"/>
<path d="M22.1562 4.79169L29.4622 0.309448L36.757 4.80885L29.4511 9.24974L22.1562 4.79169Z" fill="#FFA3E8"/>
<path d="M36.911 4.60678C36.874 4.58416 29.5851 0.0886564 29.5851 0.0886564C29.5096 0.0418445 29.4157 0.0418445 29.3394 0.0886564L22.1815 4.47961L15.0362 0.0356023C14.9607 -0.0112097 14.8667 -0.0119902 14.7905 0.0340415C14.7905 0.0340415 7.4957 4.44997 7.46018 4.47103C7.3847 4.51628 7.33512 4.58026 7.33438 4.67154L7.29072 13.3973L0.220126 17.7438C0.194226 17.7492 0.0573288 17.8272 0.0380891 17.8553C0.0033096 17.9341 0.0232895 18.1464 0.0232895 18.1464V26.8932C0.0232895 26.9852 0.0699084 27.0695 0.145387 27.1155L7.2885 31.4604C7.29146 31.4667 7.29664 31.4714 7.30034 31.4776L7.25669 40.1362C7.25669 40.2283 7.30257 40.3134 7.3773 40.3594L14.5249 44.7636C14.5337 44.7761 14.6418 44.8533 14.752 44.8486C14.8712 44.844 14.9814 44.7472 15.0036 44.73L21.978 40.5396L29.1604 44.9649C29.1981 44.9883 29.241 45 29.2832 45C29.3254 45 29.3757 44.9805 29.4038 44.9665C31.2982 43.9967 36.7149 40.5552 36.7149 40.5552C36.7904 40.51 36.8378 40.4249 36.8378 40.3336L36.8822 31.4846C36.8873 31.4019 36.8429 31.2646 36.7682 31.2178L29.4852 26.6887C29.4097 26.6419 29.3158 26.6411 29.2403 26.6872L22.0765 31.0368L15.0443 26.6638V18.2236L22.1667 13.9465L29.2714 18.2899C29.2869 18.3071 29.3047 18.3219 29.3239 18.3336C29.3616 18.357 29.4038 18.3679 29.446 18.3679C29.4882 18.3679 29.5296 18.3562 29.5674 18.3336L36.8785 13.8989C36.9539 13.8529 37.0006 13.7687 37.0006 13.6766L37.0176 4.77765C37.0176 4.68559 36.9865 4.64969 36.911 4.60366V4.60678ZM36.3516 40.1838L29.5289 44.2775L29.5703 35.9973L31.1014 35.0751L36.393 31.895L36.3508 40.1831L36.3516 40.1838ZM29.3602 27.2084L36.1599 31.437L30.8468 34.6374L29.3254 35.5518L22.5278 31.3575L29.3609 27.2084H29.3602ZM22.3132 31.8248L29.0834 36.002L29.0412 44.2986L22.2711 40.1269L22.3132 31.8248ZM21.9188 13.5057L15.0628 17.6228L15.0821 13.7811L15.1043 9.34727L21.9344 5.23875L21.9188 13.5057ZM14.9111 0.553654L21.6776 4.76126L14.8542 8.86433L8.09361 4.69339L14.9111 0.553654ZM14.6174 9.33089L14.587 15.3376L14.5759 17.5713L7.77838 13.3926L7.81982 5.14278L14.6174 9.33167V9.33089ZM7.25669 30.8488L0.510942 26.7457V18.4928L7.25669 22.6067V30.8488ZM0.767719 18.0028L7.51272 13.856L14.271 18.0207L7.53418 22.1246L0.767719 18.0036V18.0028ZM14.5567 18.4998V26.6848L7.81094 30.7809V22.6145L14.5567 18.5006V18.4998ZM14.4753 44.1387L7.74508 39.9911L7.78652 31.7468L14.5167 35.8998L14.4753 44.1387ZM21.7568 40.0824L15.0295 44.1246L15.071 35.8818L21.7982 31.8295L21.7568 40.0824ZM21.5866 31.3309L14.7964 35.416L8.08473 31.2748L14.8653 27.1506L21.5866 31.3309ZM29.2033 17.6564L22.4072 13.5018L22.4487 5.26683L29.2188 9.40501L29.2033 17.6564ZM29.463 8.92362L22.6766 4.76985L29.4623 0.607488L36.2561 4.79871L29.463 8.9244V8.92362ZM36.5136 13.5299L29.6902 17.6689L29.705 9.85596V9.39174L36.5299 5.24421L36.5144 13.5299H36.5136Z" fill="black"/>
</g>
</svg>
