<svg fill="none" height="31" viewBox="0 0 31 31" width="31" xmlns="http://www.w3.org/2000/svg" xmlns:xlink="http://www.w3.org/1999/xlink"><linearGradient id="a" gradientUnits="userSpaceOnUse" x1="20.25" x2="26.571" y1="27.173" y2="19.858"><stop offset=".08" stop-color="#9945ff"/><stop offset=".3" stop-color="#8752f3"/><stop offset=".5" stop-color="#5497d5"/><stop offset=".6" stop-color="#43b4ca"/><stop offset=".72" stop-color="#28e0b9"/><stop offset=".97" stop-color="#19fb9b"/></linearGradient><g stroke-linejoin="round" stroke-width=".094"><path d="m26.109 3.643-9.369 6.959 1.733-4.105 7.637-2.853z" fill="#e2761b" stroke="#e2761b"/><g fill="#e4761b" stroke="#e4761b"><path d="m4.481 3.643 9.294 7.024-1.648-4.171zm18.258 16.13-2.495 3.823 5.339 1.469 1.535-5.207-4.378-.085zm-19.247.085 1.525 5.207 5.339-1.469-2.495-3.823z"/><path d="m10.055 13.313-1.488 2.251 5.301.235-.188-5.697zm10.48 0-3.672-3.277-.122 5.763 5.292-.235-1.497-2.251zm-10.178 10.283 3.183-1.554-2.749-2.147-.433 3.701zm6.695-1.554 3.192 1.554-.443-3.701z"/></g><path d="m20.244 23.596-3.192-1.554.254 2.081-.028.876zm-9.887 0 2.966 1.403-.019-.876.235-2.081-3.183 1.554z" fill="#d7c1b3" stroke="#d7c1b3"/><path d="m13.369 18.521-2.655-.781 1.874-.857zm3.851 0 .781-1.638 1.883.857-2.665.781z" fill="#233447" stroke="#233447"/><path d="m10.357 23.596.452-3.823-2.947.085zm9.435-3.823.452 3.823 2.495-3.738zm2.241-4.209-5.292.235.49 2.721.782-1.638 1.883.857zm-11.318 2.175 1.883-.857.772 1.638.499-2.721-5.301-.235z" fill="#cd6116" stroke="#cd6116"/><path d="m8.567 15.564 2.222 4.331-.075-2.156zm11.328 2.175-.094 2.156 2.232-4.331-2.137 2.175zm-6.026-1.94-.499 2.721.621 3.211.141-4.228-.264-1.704zm2.872 0-.254 1.695.113 4.237.631-3.211z" fill="#e4751f" stroke="#e4751f"/><path d="m17.23 18.52-.631 3.211.452.311 2.75-2.147.094-2.156zm-6.516-.781.075 2.156 2.75 2.147.452-.311-.622-3.211z" fill="#f6851b" stroke="#f6851b"/><path d="m17.277 24.999.028-.876-.235-.207h-3.55l-.217.207.019.876-2.966-1.403 1.036.848 2.1 1.459h3.606l2.109-1.459 1.036-.848z" fill="#c0ad9e" stroke="#c0ad9e"/><path d="m17.051 22.042-.452-.311h-2.608l-.452.311-.235 2.081.217-.207h3.55l.235.207-.254-2.081z" fill="#161616" stroke="#161616"/><path d="m26.505 11.053.8-3.842-1.196-3.569-9.058 6.723 3.484 2.947 4.925 1.441 1.092-1.271-.471-.339.753-.687-.584-.452.753-.574-.499-.377zm-23.211-3.841.8 3.842-.508.377.753.574-.574.452.753.687-.471.339 1.083 1.271 4.925-1.441 3.484-2.947-9.059-6.723z" fill="#763d16" stroke="#763d16"/><path d="m25.46 14.754-4.925-1.441 1.497 2.251-2.232 4.331 2.938-.038h4.378l-1.657-5.104zm-15.405-1.441-4.925 1.441-1.638 5.104h4.369l2.928.038-2.222-4.331 1.488-2.251zm6.685 2.486.311-5.433 1.431-3.87h-6.356l1.413 3.87.329 5.433.113 1.714.009 4.219h2.61l.019-4.219.122-1.714z" fill="#f6851b" stroke="#f6851b"/></g><circle cx="23.5" cy="23.5" fill="#000" r="6.5"/><path d="m27.473 25.545-1.31 1.368c-.029.03-.063.053-.101.07a.31.31 0 0 1 -.121.024h-6.209c-.03 0-.059-.008-.083-.024a.15.15 0 0 1 -.056-.065c-.012-.026-.015-.056-.01-.084s.018-.055.039-.076l1.311-1.368c.028-.03.063-.053.101-.069a.31.31 0 0 1 .121-.025h6.208c.03 0 .059.008.083.024a.15.15 0 0 1 .056.065c.012.026.015.056.01.084s-.018.055-.039.076zm-1.31-2.756c-.029-.03-.063-.053-.101-.07a.31.31 0 0 0 -.121-.024h-6.209c-.03 0-.059.008-.083.024s-.044.038-.056.065-.015.056-.01.084.018.055.039.076l1.311 1.368c.028.03.063.053.101.069a.31.31 0 0 0 .121.025h6.208c.03 0 .059-.008.083-.024a.15.15 0 0 0 .056-.065c.012-.026.015-.056.01-.084s-.018-.055-.039-.076zm-6.431-.983h6.209a.31.31 0 0 0 .121-.024c.038-.016.073-.04.101-.07l1.31-1.368c.02-.021.034-.047.039-.076s.001-.058-.01-.084a.15.15 0 0 0 -.056-.065c-.025-.016-.054-.024-.083-.024h-6.208a.31.31 0 0 0 -.121.025c-.038.016-.072.04-.101.069l-1.31 1.368c-.02.021-.034.047-.039.076s-.001.058.01.084.031.049.056.065.054.024.083.024z" fill="url(#a)"/></svg>